<?xml version="1.0" encoding="utf-8"?>
<!-- Generator: Adobe Illustrator 16.0.0, SVG Export Plug-In . SVG Version: 6.00 Build 0)  -->
<!DOCTYPE svg PUBLIC "-//W3C//DTD SVG 1.1//EN" "http://www.w3.org/Graphics/SVG/1.1/DTD/svg11.dtd">
<svg version="1.1" id="Layer_1" xmlns="http://www.w3.org/2000/svg" xmlns:xlink="http://www.w3.org/1999/xlink" x="0px" y="0px"
	 width="133.577px" height="37.166px" viewBox="0 0 133.577 37.166" enable-background="new 0 0 133.577 37.166"
	 xml:space="preserve">
<g>
	<path fill="#F78F2F" d="M122.509,15.98c0.202-0.042,0.521-0.074,0.845-0.074c0.462,0,0.759,0.08,0.982,0.26
		c0.186,0.138,0.297,0.35,0.297,0.632c0,0.345-0.229,0.648-0.605,0.786v0.011c0.34,0.085,0.738,0.366,0.738,0.897
		c0,0.308-0.122,0.542-0.303,0.717c-0.249,0.229-0.653,0.334-1.237,0.334c-0.318,0-0.562-0.021-0.717-0.042V15.98z M122.971,17.446
		h0.42c0.488,0,0.775-0.255,0.775-0.6c0-0.419-0.319-0.584-0.786-0.584c-0.213,0-0.335,0.016-0.409,0.032V17.446z M122.971,19.161
		c0.091,0.016,0.224,0.021,0.388,0.021c0.479,0,0.919-0.175,0.919-0.696c0-0.488-0.42-0.69-0.924-0.69h-0.383V19.161z"/>
	<path fill="#F78F2F" d="M127.244,17.833h-1.392v1.29h1.551v0.388h-2.013v-3.579h1.933v0.388h-1.471v1.131h1.392V17.833z"/>
	<path fill="#F78F2F" d="M128.686,16.325h-1.088v-0.393h2.649v0.393h-1.094v3.186h-0.468V16.325z"/>
	<path fill="#F78F2F" d="M131.015,18.385l-0.372,1.126h-0.478l1.216-3.579h0.558l1.222,3.579h-0.494l-0.382-1.126H131.015z
		 M132.188,18.024l-0.351-1.03c-0.08-0.233-0.133-0.446-0.187-0.653h-0.01c-0.054,0.212-0.112,0.43-0.181,0.647l-0.351,1.036
		H132.188z"/>
</g>
<g>
	<path fill="#F36F24" d="M41.273,25.482c-0.52,0.244-1.56,0.488-2.893,0.488c-3.088,0-5.412-1.83-5.412-5.198
		c0-3.217,2.324-5.396,5.72-5.396c1.365,0,2.227,0.274,2.6,0.458l-0.341,1.082c-0.536-0.244-1.3-0.427-2.21-0.427
		c-2.567,0-4.274,1.54-4.274,4.238c0,2.516,1.544,4.131,4.209,4.131c0.861,0,1.739-0.168,2.308-0.427L41.273,25.482z"/>
	<path fill="#F36F24" d="M44.818,22.586l-1.138,3.232h-1.462l3.721-10.274h1.707l3.738,10.274h-1.512l-1.17-3.232H44.818z
		 M48.41,21.55l-1.072-2.958c-0.244-0.67-0.406-1.28-0.569-1.875h-0.033c-0.163,0.61-0.341,1.235-0.552,1.86l-1.073,2.973H48.41z"/>
	<path fill="#F36F24" d="M52.995,15.544h1.414v9.161h4.68v1.113h-6.094V15.544z"/>
	<path fill="#F36F24" d="M62.081,15.544v10.274h-1.414V15.544H62.081z"/>
</g>
<g>
	<path fill="#7C7E7F" d="M65.886,24.202c0.634,0.366,1.56,0.671,2.535,0.671c1.446,0,2.291-0.717,2.291-1.754
		c0-0.959-0.585-1.508-2.063-2.042c-1.788-0.595-2.893-1.463-2.893-2.912c0-1.601,1.414-2.79,3.542-2.79
		c1.121,0,1.934,0.244,2.421,0.503l-0.39,1.083c-0.357-0.183-1.089-0.488-2.081-0.488c-1.495,0-2.064,0.838-2.064,1.54
		c0,0.96,0.667,1.433,2.178,1.981c1.853,0.672,2.795,1.51,2.795,3.02c0,1.584-1.251,2.957-3.835,2.957
		c-1.056,0-2.21-0.29-2.795-0.656L65.886,24.202z"/>
	<path fill="#7C7E7F" d="M74.095,15.666c0.683-0.106,1.576-0.198,2.714-0.198c1.397,0,2.421,0.305,3.071,0.854
		c0.601,0.488,0.959,1.234,0.959,2.149c0,0.93-0.293,1.661-0.846,2.195c-0.747,0.746-1.966,1.127-3.348,1.127
		c-0.422,0-0.812-0.015-1.138-0.091v4.116h-1.413V15.666z M75.508,20.619c0.31,0.076,0.699,0.107,1.171,0.107
		c1.706,0,2.746-0.777,2.746-2.195c0-1.356-1.024-2.012-2.584-2.012c-0.617,0-1.089,0.045-1.333,0.106V20.619z"/>
</g>
<g>
	<path fill="#7C7E7F" d="M84.416,15.544v4.298h5.298v-4.298h1.431v10.274h-1.431v-4.817h-5.298v4.817h-1.413V15.544H84.416z"/>
	<path fill="#7C7E7F" d="M99.272,21.001h-4.258v3.704h4.745v1.113h-6.158V15.544h5.915v1.113h-4.502v3.247h4.258V21.001z"/>
	<path fill="#7C7E7F" d="M101.599,15.681c0.715-0.137,1.738-0.214,2.714-0.214c1.511,0,2.486,0.259,3.169,0.839
		c0.552,0.457,0.861,1.158,0.861,1.951c0,1.356-0.91,2.256-2.064,2.622v0.046c0.846,0.274,1.349,1.006,1.609,2.073
		c0.357,1.433,0.617,2.424,0.845,2.82h-1.463c-0.179-0.29-0.422-1.174-0.731-2.455c-0.324-1.418-0.909-1.951-2.193-1.996h-1.333
		v4.451h-1.413V15.681z M103.012,20.361h1.446c1.512,0,2.471-0.778,2.471-1.952c0-1.326-1.024-1.906-2.519-1.921
		c-0.683,0-1.171,0.061-1.398,0.122V20.361z"/>
	<path fill="#7C7E7F" d="M116.015,21.001h-4.258v3.704h4.745v1.113h-6.158V15.544h5.915v1.113h-4.502v3.247h4.258V21.001z"/>
</g>
<path fill="#F36F24" d="M4.412,15.854c1.133,3.967,5.503,5.305,7.427,5.74c-1.781-0.955-4.954-2.554-5.968-6.106
	c-1.015-3.552,0.88-6.424,1.913-8.088C6.35,8.681,3.279,11.889,4.412,15.854"/>
<path fill-rule="evenodd" clip-rule="evenodd" fill="#F78F2F" d="M2.057,16.441c0.613,2.144,2.982,3.355,4.353,3.826
	c-1.187-0.725-2.728-2.495-3.191-4.117c-0.462-1.617,0.01-3.576,0.564-5.053C2.836,12.213,1.446,14.306,2.057,16.441"/>
<path fill-rule="evenodd" clip-rule="evenodd" fill="#F36F24" d="M2.698,19.326c-0.523-0.671-1.285-1.353-1.681-2.628
	c-0.3-0.972-0.044-2.099,0.055-3.045c-0.444,0.876-1.341,2.062-0.993,3.282C0.428,18.153,1.854,18.78,2.698,19.326"/>
<path fill="#F36F24" d="M27.27,10.109c-1.134-3.966-5.502-5.304-7.428-5.741c1.781,0.956,4.954,2.556,5.969,6.108
	c1.015,3.55-0.882,6.424-1.915,8.088C25.332,17.283,28.402,14.076,27.27,10.109"/>
<path fill-rule="evenodd" clip-rule="evenodd" fill="#F78F2F" d="M29.624,9.521c-0.612-2.143-2.982-3.356-4.352-3.825
	c1.188,0.723,2.727,2.494,3.19,4.116c0.463,1.616-0.008,3.576-0.563,5.051C28.844,13.75,30.234,11.659,29.624,9.521"/>
<path fill-rule="evenodd" clip-rule="evenodd" fill="#F36F24" d="M28.956,6.644c0.523,0.671,1.286,1.354,1.681,2.627
	c0.301,0.974,0.046,2.1-0.054,3.045c0.443-0.877,1.341-2.061,0.992-3.28C31.227,7.816,29.8,7.191,28.956,6.644"/>
<path fill="#F36F24" d="M18.357,21.832c4.227-1.062,5.653-5.162,6.118-6.968c-1.02,1.672-2.723,4.649-6.51,5.601
	c-3.786,0.951-6.849-0.829-8.624-1.796C10.708,20.014,14.128,22.895,18.357,21.832"/>
<path fill-rule="evenodd" clip-rule="evenodd" fill="#F78F2F" d="M18.981,24.041c2.286-0.574,3.577-2.797,4.078-4.082
	c-0.773,1.112-2.659,2.557-4.388,2.993c-1.723,0.433-3.812-0.009-5.387-0.53C14.474,23.309,16.704,24.612,18.981,24.041"/>
<path fill-rule="evenodd" clip-rule="evenodd" fill="#F36F24" d="M22.05,23.414c-0.716,0.49-1.445,1.205-2.802,1.576
	c-1.037,0.282-2.239,0.043-3.247-0.051c0.935,0.418,2.198,1.258,3.499,0.93C20.798,25.545,21.465,24.207,22.05,23.414"/>
<path fill="#F36F24" d="M13.301,4.137C9.073,5.2,7.647,9.299,7.182,11.104c1.019-1.669,2.724-4.647,6.51-5.599
	c3.786-0.951,6.849,0.828,8.623,1.796C20.948,5.956,17.529,3.074,13.301,4.137"/>
<path fill-rule="evenodd" clip-rule="evenodd" fill="#F78F2F" d="M12.675,1.928C10.39,2.503,9.098,4.724,8.598,6.011
	c0.771-1.112,2.657-2.559,4.387-2.994c1.723-0.433,3.812,0.009,5.387,0.529C17.182,2.661,14.953,1.355,12.675,1.928"/>
<path fill-rule="evenodd" clip-rule="evenodd" fill="#F36F24" d="M9.6,2.529c0.716-0.489,1.443-1.205,2.8-1.576
	c1.038-0.282,2.238-0.042,3.248,0.051c-0.936-0.417-2.198-1.257-3.498-0.93C10.85,0.4,10.183,1.737,9.6,2.529"/>
<path fill="#7E7D7E" d="M35.138,35.635v-2.27h0.643v2.195c0,0.813,0.304,1.14,0.999,1.14c0.657,0,0.953-0.386,0.953-1.071v-2.264
	h0.592v2.211c0,1.014-0.503,1.656-1.568,1.656C35.641,37.232,35.138,36.604,35.138,35.635"/>
<path fill="#7E7D7E" d="M39.656,33.365H40.3l1.678,2.299c0.214,0.305,0.384,0.629,0.392,0.629h0.014c0,0-0.029-0.296-0.029-0.584
	v-2.344h0.577v3.801h-0.577l-1.782-2.441c-0.177-0.258-0.34-0.561-0.34-0.561h-0.007c0,0,0.022,0.251,0.022,0.486v2.516h-0.592
	V33.365z"/>
<rect x="44.336" y="33.365" fill="#7E7D7E" width="0.636" height="3.801"/>
<path fill="#7E7D7E" d="M45.933,33.365h0.673l0.961,2.492c0.111,0.279,0.222,0.643,0.222,0.65h0.015c0-0.008,0.111-0.363,0.222-0.65
	l0.924-2.492h0.614l-1.472,3.801h-0.621L45.933,33.365z"/>
<polygon fill="#7E7D7E" points="50.503,33.365 52.825,33.365 52.825,33.883 51.139,33.883 51.139,34.926 52.647,34.926 
	52.647,35.428 51.139,35.428 51.139,36.648 52.862,36.648 52.862,37.166 50.503,37.166 "/>
<path fill="#7E7D7E" d="M54.051,33.365h1.191c0.887,0,1.397,0.362,1.397,1.051c0,0.649-0.473,0.938-1.042,0.998v0.014
	c0.081,0.06,0.222,0.199,0.451,0.518l0.902,1.221h-0.732l-0.769-1.088c-0.377-0.525-0.466-0.568-0.695-0.568h-0.067v1.656h-0.636
	V33.365z M55.228,35.037c0.533,0,0.762-0.201,0.762-0.593c0-0.399-0.252-0.584-0.799-0.584h-0.503v1.177H55.228z"/>
<path fill="#7E7D7E" d="M57.594,36.855l0.281-0.451c0.104,0.074,0.384,0.311,0.887,0.311c0.451,0,0.747-0.199,0.747-0.533
	c0-0.398-0.362-0.51-0.917-0.769c-0.488-0.222-0.902-0.495-0.902-1.094c0-0.666,0.569-1.028,1.227-1.028
	c0.622,0,0.939,0.2,1.102,0.311l-0.273,0.451c-0.141-0.097-0.429-0.244-0.806-0.244c-0.363,0-0.629,0.156-0.629,0.48
	c0,0.361,0.318,0.473,0.732,0.658c0.533,0.236,1.08,0.511,1.08,1.205c0,0.666-0.533,1.08-1.354,1.08
	C58.133,37.232,57.749,36.996,57.594,36.855"/>
<rect x="61.268" y="33.365" fill="#7E7D7E" width="0.636" height="3.801"/>
<polygon fill="#7E7D7E" points="64.033,33.891 62.872,33.891 62.872,33.365 65.838,33.365 65.838,33.891 64.677,33.891 
	64.677,37.166 64.033,37.166 "/>
<polygon fill="#7E7D7E" points="67.768,35.724 66.43,33.365 67.125,33.365 68.1,35.169 68.115,35.169 69.077,33.365 69.698,33.365 
	68.403,35.724 68.403,37.166 67.768,37.166 "/>
<path fill="#7E7D7E" d="M72.218,35.273c0-1.043,0.732-1.982,2.005-1.982c1.271,0,2.003,0.917,2.003,1.96
	c0,1.042-0.717,1.981-1.988,1.981C72.965,37.232,72.218,36.314,72.218,35.273 M75.553,35.273c0-0.785-0.436-1.465-1.315-1.465
	s-1.339,0.674-1.339,1.442c0,0.782,0.443,1.456,1.324,1.456C75.103,36.707,75.553,36.049,75.553,35.273"/>
<polygon fill="#7E7D7E" points="77.35,33.365 79.635,33.365 79.635,33.883 77.984,33.883 77.984,34.963 79.442,34.963 
	79.442,35.473 77.984,35.473 77.984,37.166 77.35,37.166 "/>
<path fill="#7E7D7E" d="M82.333,35.258c0-1.057,0.725-1.967,2.012-1.967c0.51,0,0.85,0.111,1.146,0.304l-0.303,0.474
	c-0.222-0.148-0.488-0.244-0.858-0.244c-0.864,0-1.315,0.599-1.315,1.412c0,0.836,0.429,1.463,1.331,1.463
	c0.429,0,0.717-0.141,0.938-0.303l0.267,0.451c-0.207,0.178-0.651,0.385-1.228,0.385C83.028,37.232,82.333,36.314,82.333,35.258"/>
<path fill="#7E7D7E" d="M87.671,33.365h0.621l1.546,3.801h-0.666l-0.324-0.828H87.08l-0.311,0.828h-0.629L87.671,33.365z
	 M88.655,35.82l-0.451-1.161c-0.126-0.333-0.236-0.688-0.236-0.688h-0.016c0,0-0.118,0.371-0.235,0.688l-0.444,1.161H88.655z"/>
<polygon fill="#7E7D7E" points="90.77,33.365 91.42,33.365 91.42,36.648 93.024,36.648 93.024,37.166 90.77,37.166 "/>
<rect x="94.112" y="33.365" fill="#7E7D7E" width="0.636" height="3.801"/>
<polygon fill="#7E7D7E" points="96.159,33.365 98.444,33.365 98.444,33.883 96.796,33.883 96.796,34.963 98.252,34.963 
	98.252,35.473 96.796,35.473 96.796,37.166 96.159,37.166 "/>
<path fill="#7E7D7E" d="M99.265,35.273c0-1.043,0.732-1.982,2.004-1.982s2.004,0.917,2.004,1.96c0,1.042-0.718,1.981-1.988,1.981
	C100.012,37.232,99.265,36.314,99.265,35.273 M102.6,35.273c0-0.785-0.437-1.465-1.315-1.465c-0.88,0-1.338,0.674-1.338,1.442
	c0,0.782,0.442,1.456,1.322,1.456S102.6,36.049,102.6,35.273"/>
<path fill="#7E7D7E" d="M104.396,33.365h1.19c0.887,0,1.398,0.362,1.398,1.051c0,0.649-0.475,0.938-1.043,0.998v0.014
	c0.081,0.06,0.221,0.199,0.45,0.518l0.902,1.221h-0.731l-0.77-1.088c-0.377-0.525-0.466-0.568-0.695-0.568h-0.066v1.656h-0.636
	V33.365z M105.572,35.037c0.532,0,0.762-0.201,0.762-0.593c0-0.399-0.252-0.584-0.799-0.584h-0.503v1.177H105.572z"/>
<path fill="#7E7D7E" d="M108.227,33.365h0.643l1.679,2.299c0.215,0.305,0.385,0.629,0.393,0.629h0.014c0,0-0.029-0.296-0.029-0.584
	v-2.344h0.577v3.801h-0.577l-1.781-2.441c-0.179-0.258-0.34-0.561-0.34-0.561h-0.009c0,0,0.023,0.251,0.023,0.486v2.516h-0.592
	V33.365z"/>
<rect x="112.907" y="33.365" fill="#7E7D7E" width="0.636" height="3.801"/>
<path fill="#7E7D7E" d="M116.05,33.365h0.621l1.545,3.801h-0.666l-0.325-0.828h-1.767l-0.311,0.828h-0.629L116.05,33.365z
	 M117.032,35.82l-0.45-1.161c-0.126-0.333-0.236-0.688-0.236-0.688h-0.015c0,0-0.119,0.371-0.237,0.688l-0.444,1.161H117.032z"/>
<g>
</g>
<g>
</g>
<g>
</g>
<g>
</g>
<g>
</g>
<g>
</g>
</svg>
